<svg width="174" height="48" viewBox="0 0 174 48" fill="none" xmlns="http://www.w3.org/2000/svg">
<path d="M36.9488 10.1831C36.4269 9.14503 33.5043 3.90507 27.0849 2.1749C25.7801 1.82886 20.509 0.39529 16.1772 3.26243C12.7326 5.53638 11.741 9.29333 11.4279 10.4797C10.9582 12.2593 10.9582 13.6929 11.0104 14.6816C11.0625 16.8072 11.1147 19.5261 13.0458 22.1955C13.5677 22.937 15.4465 25.4087 18.8911 26.4962C20.6133 27.04 21.9703 27.04 23.8491 26.9905C28.3375 26.8917 31.6254 25.557 32.9302 24.9638C34.1306 24.42 35.8006 23.5302 37.5751 22.146C38.2014 22.4921 38.8277 22.8875 39.5061 23.2336C39.0886 23.5796 38.5145 24.0245 37.8361 24.5189C37.8361 24.5189 35.8006 25.9524 33.9218 26.9411C30.686 28.5724 26.3542 28.8196 24.4754 28.9679C21.3962 29.1162 17.5341 29.3633 12.837 27.8803C9.75779 26.8917 6.00011 25.7053 3.28622 22.146C2.60775 21.2068 0.102625 17.8948 0.624526 13.2974C1.09424 9.24389 3.65155 6.67335 4.74754 5.58581C7.77457 2.6198 11.3235 1.68056 14.1939 0.988492C17.4819 0.197555 20.248 0.148122 21.8137 0.148122C24.2666 0.148122 25.5714 0.148122 27.4502 0.54359C29.1203 0.939059 30.8426 1.33453 32.5127 1.73C33.4521 1.92773 34.2349 2.1749 35.1744 1.82886C36.2182 1.48283 36.7923 0.642457 37.1054 0.148122H38.4623C38.4623 3.46017 38.5145 6.77222 38.5667 10.0843C38.0448 10.0843 37.5229 10.1337 37.001 10.1831H36.9488Z" fill="#EA2229"/>
<path d="M83.4502 27.139C82.7196 26.8424 82.1977 26.3975 81.9889 26.1503C76.3524 17.45 70.7158 8.7003 65.0271 0H63.357C58.138 8.4037 52.919 16.758 47.7 25.1617C47.5434 25.4088 47.1259 26.0515 46.3431 26.5458C45.4036 27.1885 44.412 27.3862 43.577 27.4356C43.577 27.8311 43.5248 28.2266 43.4726 28.622C47.8044 28.622 52.084 28.5726 56.3636 28.5232V27.5345C54.9022 27.5345 53.7541 27.3368 52.9712 27.139C51.6665 26.793 51.3533 26.4469 51.1967 26.1503C50.988 25.7054 51.0924 25.2111 51.1967 24.9639L53.7541 20.4655C58.3468 20.4655 62.9395 20.5149 67.5322 20.5644C68.2629 21.8002 68.9414 23.036 69.672 24.2719C70.1939 24.8156 70.4027 25.6066 70.0896 26.2986C69.7764 27.0401 69.0458 27.5345 68.1585 27.4851C67.2713 27.4851 66.3841 27.4851 65.4968 27.4851V28.8198C72.1772 28.7703 78.9097 28.6715 85.59 28.622V27.5345C85.1725 27.5345 84.3896 27.5839 83.4502 27.2379V27.139ZM54.5369 18.8342L60.4344 9.19464L66.3319 18.8342H54.5369Z" fill="#EA2229"/>
<path d="M129.064 13.8908C128.803 9.73841 126.35 7.01957 125.568 6.1792C122.071 2.42225 117.322 1.58188 114.242 1.08754C112.468 0.790941 110.954 0.692074 109.911 0.692074H87.2601V1.87848H89.6086C90.3393 1.87848 91.5397 1.97735 92.2703 2.76828C92.7922 3.31205 92.8966 4.00412 92.8966 4.35016C93.0532 6.12976 93.0532 14.0391 92.8966 24.8156C92.8444 25.2111 92.6357 25.9526 91.9572 26.4964C91.2787 27.0402 90.5481 27.1885 89.6086 27.2873C89.0867 27.3862 88.2517 27.4356 87.2601 27.2873C87.2601 27.7322 87.2079 28.1771 87.1557 28.5726C94.6711 28.5232 102.186 28.4243 109.702 28.3749C111.476 28.3749 114.138 28.1277 117.217 27.1885C120.401 26.1998 124.733 24.8651 127.29 20.861C129.221 17.8455 129.169 14.7806 129.064 13.8414V13.8908ZM116.591 22.9372C115.13 24.6179 113.199 25.4583 112.572 25.7549C110.798 26.5458 109.128 26.6941 108.136 26.7436H104.535C104.535 26.7436 103.804 26.7436 103.387 26.2492C102.865 25.7054 102.969 25.0134 102.969 24.9639C102.969 24.173 102.604 5.04223 102.969 3.70752C103.126 3.11432 103.491 2.81772 103.491 2.81772C103.857 2.52112 104.274 2.42225 104.535 2.42225H108.762C109.18 2.42225 109.754 2.57055 110.432 2.71885C110.432 2.71885 113.251 3.46035 115.391 5.43769C118.783 8.55201 118.783 13.2482 118.783 15.275C118.783 17.4006 118.783 20.4655 116.539 22.9866L116.591 22.9372Z" fill="#EA2229"/>
<path d="M173.217 13.8908C172.956 9.73841 170.503 7.01957 169.72 6.1792C166.224 2.42225 161.474 1.58188 158.395 1.08754C156.621 0.790941 155.107 0.692074 154.063 0.692074H131.413V1.87848H133.761C134.492 1.87848 135.692 1.97735 136.423 2.76828C136.945 3.31205 137.049 4.00412 137.049 4.35016C137.206 6.12976 137.206 14.0391 137.049 24.8156C136.997 25.2111 136.788 25.9526 136.11 26.4964C135.432 27.0402 134.701 27.1885 133.761 27.2873C133.24 27.3862 132.405 27.4356 131.413 27.2873C131.413 27.7322 131.361 28.1771 131.309 28.5726C138.824 28.5232 146.339 28.4243 153.855 28.3749C155.629 28.3749 158.291 28.1277 161.37 27.1885C164.554 26.1998 168.885 24.8651 171.443 20.861C173.374 17.8455 173.322 14.7806 173.217 13.8414V13.8908ZM160.744 22.9372C159.282 24.6179 157.351 25.4583 156.725 25.7549C154.951 26.5458 153.281 26.6941 152.289 26.7436H148.688C148.688 26.7436 147.957 26.7436 147.54 26.2492C147.018 25.7054 147.122 25.0134 147.122 24.9639C147.122 24.173 146.757 5.04223 147.122 3.70752C147.279 3.11432 147.644 2.81772 147.644 2.81772C148.009 2.52112 148.427 2.42225 148.688 2.42225H152.915C153.333 2.42225 153.907 2.57055 154.585 2.71885C154.585 2.71885 157.404 3.46035 159.543 5.43769C162.936 8.55201 162.936 13.2482 162.936 15.275C162.936 17.4006 162.936 20.4655 160.692 22.9866L160.744 22.9372Z" fill="#EA2229"/>
<path d="M25.2583 37.2729C24.8929 36.6797 22.8575 33.7631 18.4214 32.7745C17.5341 32.5767 13.8808 31.7858 10.8538 33.3677C8.45307 34.6529 7.7746 36.7291 7.56583 37.4212C7.25269 38.4099 7.25269 39.2008 7.25269 39.794C7.25269 40.9804 7.35707 42.5129 8.66183 43.9959C9.02716 44.3913 10.3319 45.7755 12.7327 46.4181C13.933 46.7147 14.8724 46.7147 16.1772 46.7147C19.3086 46.7147 21.605 45.9238 22.4922 45.5777C23.3272 45.2811 24.4754 44.7868 25.728 43.9959C26.1455 44.1936 26.6152 44.3913 27.0327 44.5891C26.7718 44.7868 26.3543 45.034 25.8324 45.3306C25.8324 45.3306 24.4232 46.1215 23.1185 46.6653C20.8743 47.6045 17.8995 47.7528 16.5947 47.8022C14.4549 47.9011 11.741 48 8.50526 47.209C6.36546 46.6653 3.75596 45.9732 1.87712 43.9959C1.4074 43.5015 -0.314869 41.6231 0.0504617 39.0525C0.363602 36.7786 2.13807 35.345 2.92092 34.7518C5.06071 33.0711 7.51365 32.5767 9.44468 32.1813C11.741 31.6869 13.6721 31.6869 14.7681 31.6869C16.4381 31.6869 17.3776 31.6869 18.6823 31.9341C19.8827 32.1813 21.0309 32.379 22.2312 32.6262C22.8575 32.7745 23.4316 32.8733 24.0579 32.6756C24.7886 32.4779 25.2061 31.9835 25.3627 31.7364H26.3021C26.3021 33.5654 26.3021 35.4439 26.3543 37.2729C25.9889 37.2729 25.6236 37.2729 25.2583 37.3223V37.2729Z" fill="#EA2229"/>
<path d="M29.4335 31.8352H54.3281V36.6303H53.18C53.0756 36.2348 52.8668 35.5427 52.3449 34.9495C52.1883 34.7518 51.5621 34.0103 50.1007 33.4665C49.1613 33.0711 48.2741 32.9228 46.0821 32.8733C44.8817 32.8733 43.3682 32.8239 41.5416 32.8733C41.385 32.8733 41.0197 32.9722 40.7065 33.2688C40.3934 33.516 40.3412 33.862 40.289 33.9609V39.0525C41.3328 39.0525 42.4288 39.0525 43.4726 39.0525C43.8901 39.0525 44.6208 38.9042 45.4036 38.4593C46.8649 37.5695 47.2303 36.0865 47.3347 35.7405H48.3785V43.551H47.2303C47.1781 43.1555 47.0215 42.4634 46.4996 41.7219C45.508 40.3378 43.8901 40.0906 43.5248 40.0412C42.481 40.0412 41.385 39.9918 40.3412 39.9423C40.3412 41.7714 40.3412 43.6004 40.3412 45.4789C40.3412 45.6272 40.4978 45.9238 40.7587 46.171C41.124 46.517 41.5416 46.6159 41.6981 46.6653H47.6478C48.4307 46.6159 49.4223 46.4181 50.5183 46.0721C53.0756 45.1823 54.6413 43.551 55.3719 42.6612C55.6851 42.7106 55.9982 42.8095 56.3114 42.8589C55.7373 44.4408 55.1632 46.0227 54.6413 47.5551H29.5378V46.863H31.6776C31.6776 46.863 32.5127 46.863 33.0346 46.2698C33.4521 45.8249 33.4521 45.3306 33.4521 45.1823V33.862C33.4521 33.862 33.2433 33.3677 32.9302 33.0711C32.4083 32.6262 31.8342 32.5767 31.6776 32.5767H29.5378V31.8847L29.4335 31.8352Z" fill="#EC1C24"/>
<path d="M57.7205 31.8352H67.0625L81.9889 41.7714V34.3563C81.9889 34.3563 81.8323 33.6643 81.3626 33.2688C80.8407 32.8239 80.2666 32.6756 80.11 32.6756H78.179V31.8847C81.3104 31.8847 84.4418 31.8847 87.6254 31.8847V32.5767H85.6944C85.6944 32.5767 84.9115 32.7745 84.4418 33.2688C84.0243 33.7137 83.8677 34.1586 83.8155 34.3563V48H82.6674C76.3523 43.7981 70.0374 39.5963 63.7224 35.345V45.5778C63.7224 45.5778 64.0877 46.0721 64.453 46.3687C64.9227 46.7147 65.3402 46.8136 65.6012 46.863H67.5322V47.654H57.8771C57.8771 47.4068 57.8771 47.1102 57.8771 46.863H60.1212C60.1212 46.863 60.8519 46.6159 61.2694 46.171C61.5826 45.8744 61.7391 45.5778 61.7913 45.38V34.1586C60.7997 33.6148 59.8081 33.0711 58.8165 32.5767H57.7727V31.8847L57.7205 31.8352Z" fill="#EC1C24"/>
<path d="M88.8258 31.8351H114.764V36.7291H113.616C113.512 36.1853 113.251 35.4932 112.677 34.8012C111.007 32.8238 108.188 32.8733 107.823 32.8733H105.37V45.8248C105.37 45.8248 105.735 46.1709 105.996 46.3192C106.414 46.5663 106.779 46.7146 107.04 46.8135H109.284V47.6045H94.5667V46.8135H96.9153C96.9153 46.8135 97.4894 46.5663 97.8547 46.3192C98.0635 46.1709 98.2722 45.9731 98.3766 45.8248V32.8733H95.7149C95.3496 32.8733 93.262 32.8733 91.6963 34.3563C90.8091 35.1966 90.5481 36.1853 90.4437 36.6796H88.878V31.7857L88.8258 31.8351Z" fill="#EC1C24"/>
<path d="M145.035 46.863C144.617 46.7642 144.304 46.6159 144.095 46.4676C141.433 44.2925 138.824 42.1174 136.162 39.9423C136.528 39.8929 137.102 39.794 137.728 39.6457C139.346 39.2503 140.233 39.0525 141.016 38.4593C141.277 38.2616 142.582 37.2235 142.477 35.8393C142.373 34.6529 141.277 33.9114 140.546 33.4171C139.137 32.4779 137.676 32.2801 135.588 32.033C134.44 31.8847 133.448 31.8352 132.822 31.8352H116.539C116.539 32.0824 116.539 32.379 116.539 32.6262C117.583 32.4779 118.365 32.5273 118.887 32.6262C119.409 32.725 119.722 32.8239 119.931 33.0216C120.349 33.3677 120.453 33.8126 120.453 33.9114V45.6272C120.453 45.6272 120.244 46.0721 119.931 46.3193C119.514 46.6653 119.096 46.7642 118.887 46.8136H116.434V47.6045H131.256V46.8136H128.803C128.803 46.8136 128.229 46.6159 127.864 46.3193C127.603 46.1215 127.446 45.8744 127.342 45.7261V40.2884H128.386C131.465 42.7106 134.544 45.0834 137.571 47.5057H146.235V46.9125C145.922 46.9125 145.504 46.9125 144.982 46.8136L145.035 46.863ZM130.839 39.448H127.342V33.6148C127.342 33.6148 127.446 33.3182 127.655 33.1205C127.916 32.9228 128.229 32.9228 128.281 32.9228H131.778C133.605 33.1699 134.91 34.6035 134.962 36.136C134.962 37.965 133.135 39.6457 130.839 39.448Z" fill="#EC1C24"/>
<path d="M147.122 31.9341H172.017V36.7292H170.869C170.764 36.3337 170.555 35.6416 170.034 35.0484C169.877 34.8507 169.251 34.1092 167.789 33.5654C166.85 33.1699 165.963 33.0216 163.771 32.9722C162.57 32.9722 161.057 32.9228 159.23 32.9722C159.074 32.9722 158.708 33.0711 158.395 33.3677C158.082 33.6148 158.03 33.9609 157.978 34.0597V39.1514C159.021 39.1514 160.117 39.1514 161.161 39.1514C161.579 39.1514 162.309 39.0031 163.092 38.5582C164.554 37.6684 164.919 36.1854 165.023 35.8394H166.067V43.6498H164.919C164.867 43.2544 164.71 42.5623 164.188 41.8208C163.197 40.4367 161.579 40.1895 161.213 40.1401C160.17 40.1401 159.074 40.0906 158.03 40.0412C158.03 41.8702 158.03 43.6993 158.03 45.5778C158.03 45.7261 158.186 46.0227 158.447 46.2698C158.813 46.6159 159.23 46.7147 159.387 46.7642H165.336C166.119 46.7147 167.111 46.517 168.207 46.171C170.764 45.2812 172.33 43.6498 173.061 42.76C173.374 42.8095 173.687 42.9083 174 42.9578C173.426 44.5396 172.852 46.1215 172.33 47.654H147.227V46.9619H149.366C149.366 46.9619 150.201 46.9619 150.723 46.3687C151.141 45.9238 151.141 45.4295 151.141 45.2812V33.9609C151.141 33.9609 150.932 33.4665 150.619 33.1699C150.097 32.725 149.523 32.6756 149.366 32.6756H147.227V31.9835L147.122 31.9341Z" fill="#EA2229"/>
</svg>
