<?xml version="1.0" encoding="UTF-8"?>
<svg id="Layer_1" data-name="Layer 1" xmlns="http://www.w3.org/2000/svg" viewBox="0 0 1080 1080">
  <defs>
    <style>
      .cls-1 {
        fill-rule: evenodd;
      }

      .cls-1, .cls-2, .cls-3 {
        fill: #fff;
      }

      .cls-4, .cls-2, .cls-3 {
        isolation: isolate;
      }

      .cls-2 {
        font-size: 45.69px;
      }

      .cls-2, .cls-3 {
        font-family: ArialMT, Arial;
      }

      .cls-3 {
        font-size: 62.87px;
      }
    </style>
  </defs>
  <g class="cls-4">
    <text class="cls-2" transform="translate(951.83 400.95)"><tspan x="0" y="0">®</tspan></text>
  </g>
  <g>
    <g id="CADD_CENTER" data-name="CADD CENTER">
      <path class="cls-1" d="M228.04,590.55c-8.07,5.9-16.94,10.23-26.65,13.01-9.75,2.76-20.93,4.15-33.54,4.15-21.1,0-38.6-4.03-52.51-12.1-13.93-8.08-20.89-18.22-20.89-30.45s6.95-22.41,20.89-30.49c13.91-8.07,31.41-12.1,52.51-12.1,13.42,0,25.51,1.53,36.23,4.59,3.39.97,6.39,1.15,9.01.5,2.58-.64,4.36-1.97,5.31-3.97l.53-1.11h5.73v29.44h-5.73c-3.88-7.65-10.1-13.63-18.59-17.98-8.49-4.35-18.24-6.51-29.25-6.51-12.82,0-22.81,3.24-29.93,9.71-7.13,6.48-10.69,15.57-10.69,27.24s3.56,20.7,10.69,27.16c7.13,6.46,17.12,9.69,29.93,9.69,9.75,0,18.62-1.11,26.59-3.32,8-2.22,15.86-5.78,23.65-10.69l6.7,3.24h.01ZM240.27,606.08v-3.44h1.96c6.26,0,10.69-.73,13.31-2.18,2.59-1.45,3.88-3.95,3.88-7.47v-55.7c0-3.51-1.29-6.02-3.88-7.47-2.62-1.45-7.09-2.18-13.42-2.18h-1.95v-3.44h122.1v24.67h-5.73c-2.66-7.86-7.3-13.13-13.87-15.77s-18.45-3.95-35.57-3.95h-1.44c-4.79,0-7.96.46-9.57,1.37-1.61.91-2.41,2.72-2.41,5.44v25.73h2.55c10.16,0,17.36-1.18,21.52-3.5,4.15-2.32,7.4-6.99,9.71-14.02h5.73v40.68h-5.73c-2.44-7.29-5.76-12.16-9.92-14.6-4.16-2.45-11.25-3.68-21.31-3.68h-2.55v26.02c0,3.52,1.01,5.86,3.07,7.03,2.07,1.17,6.15,1.73,12.3,1.69,15.54-.04,27.22-1.45,35.04-4.21,7.79-2.78,15.58-8.34,23.37-16.69l5.03.58-4.51,12.51-4.61,12.57h-123.11.01ZM408.11,590.07c0,4.35,1.29,7.47,3.88,9.34,2.62,1.89,7.09,2.96,13.41,3.24h1.96v3.44h-47.09v-3.44h1.96c6.25-.28,10.69-1.35,13.31-3.24,2.58-1.87,3.88-4.99,3.88-9.34v-53.72c-4.51-3.02-8.18-5.18-11.04-6.51-3.15-1.47-5.97-2.21-8.52-2.21h-.7v-3.44h45.45l74.42,51.79v-35.78c0-4.35-1.3-7.47-3.88-9.34-2.62-1.89-7.09-2.96-13.42-3.24h-1.96v-3.44h47.09v3.44h-1.95c-6.26.28-10.69,1.35-13.31,3.24-2.59,1.87-3.88,4.99-3.88,9.34v67.74h-5.52l-94.08-65.59v47.72h-.01ZM579.95,592.99v-63.85h-.8c-11.77,0-20.85,1.69-27.35,5.09s-10.37,8.5-11.66,15.33h-6.85v-25.37h127.52v25.37h-6.15c-1.29-6.83-5.17-11.94-11.67-15.33-6.47-3.4-15.58-5.09-27.32-5.09h-1.43v63.85c0,3.52,1.29,6.02,3.88,7.47,2.62,1.45,7.09,2.18,13.41,2.18h1.96v3.44h-71.83v-3.44h1.86c6.04,0,10.3-.73,12.78-2.21,2.45-1.45,3.67-3.93,3.67-7.45h-.02ZM688.64,592.99v-55.7c0-3.51-1.29-6.02-3.88-7.47-2.62-1.45-7.09-2.18-13.41-2.18h-1.96v-3.44h68.47c20.2,0,35.11,1.81,44.75,5.4,9.68,3.62,14.5,9.2,14.5,16.76s-5.66,12.76-16.98,16.53c-4.29,1.43-9.36,2.58-15.16,3.44l30.5,26.66c4.09,3.52,7.69,6.02,10.76,7.47,3.07,1.45,6.32,2.18,9.82,2.18h1.02v3.44h-43.35l-45.98-37.6h-4.82v24.51c0,3.52,1.29,6.02,3.88,7.47,2.62,1.45,7.09,2.18,13.41,2.18h1.96v3.44h-72.66v-3.44h1.95c6.26,0,10.69-.73,13.31-2.21,2.59-1.45,3.88-3.93,3.88-7.45h-.01ZM722.92,563.89h6.95c10.79,0,18.51-1.43,23.16-4.27,4.68-2.86,7.02-7.57,7.02-14.12,0-5.5-2.16-9.61-6.53-12.34-4.19-2.52-10.27-3.85-18.34-4.01-4.89-.08-8.17.34-9.82,1.23-1.64.87-2.44,2.74-2.44,5.58v27.93h0ZM820.14,606.08v-3.44h1.96c6.26,0,10.69-.73,13.31-2.18,2.59-1.45,3.88-3.95,3.88-7.47v-55.7c0-3.51-1.29-6.02-3.88-7.47-2.62-1.45-7.09-2.18-13.42-2.18h-1.95v-3.44h122.1v24.67h-5.73c-2.66-7.86-7.3-13.13-13.87-15.77s-18.45-3.95-35.57-3.95h-1.44c-4.79,0-7.96.46-9.57,1.37s-2.41,2.72-2.41,5.44v25.73h2.55c10.16,0,17.36-1.18,21.52-3.5,4.15-2.32,7.4-6.99,9.71-14.02h5.73v40.68h-5.73c-2.44-7.29-5.76-12.16-9.92-14.6-4.16-2.45-11.25-3.68-21.31-3.68h-2.55v26.02c0,3.52,1.01,5.86,3.07,7.03,2.07,1.17,6.16,1.73,12.3,1.69,15.54-.04,27.22-1.45,35.04-4.21,7.79-2.78,15.58-8.34,23.37-16.69l5.03.58-4.51,12.51-4.61,12.57h-123.11,0Z"/>
      <path class="cls-1" d="M290.11,479.64c-11.62,10.48-24.39,18.18-38.38,23.12-14.04,4.91-30.13,7.38-48.29,7.38-30.38,0-55.59-7.16-75.61-21.5-20.07-14.37-30.08-32.36-30.08-54.11s10.01-39.82,30.08-54.18c20.02-14.33,45.22-21.49,75.61-21.49,19.32,0,36.72,2.72,52.16,8.15,4.88,1.73,9.21,2.05,12.98.88,3.72-1.13,6.29-3.5,7.64-7.06l.76-1.97h8.25v52.31h-8.25c-5.59-13.59-14.54-24.21-26.77-31.94-12.22-7.73-26.25-11.57-42.1-11.57-18.46,0-32.85,5.75-43.11,17.26-10.26,11.5-15.39,27.67-15.39,48.39s5.13,36.78,15.39,48.25,24.65,17.23,43.11,17.23c14.03,0,26.81-1.98,38.29-5.9,11.51-3.95,22.84-10.27,34.05-18.99l9.66,5.76h0v-.02ZM333.37,483.98l73.5-125.55h7.94l76.82,125.55c3.82,6.25,7.54,10.7,11.12,13.27,3.57,2.58,7.89,3.88,12.88,3.88h1.51v6.1h-99.3v-6.1h3.12c9.15,0,15.14-1.45,17.96-4.31,2.87-2.86,2.57-7.13-.86-12.88l-11.22-19.13h-67.16l-10.56,19.13c-3.02,5.4-3.02,9.39,0,11.96,3.07,2.58,9.86,4.34,20.37,5.23h3.22v6.1h-63.38v-6.1h1.31c4.73-.28,8.81-1.73,12.27-4.34,3.43-2.54,6.9-6.81,10.46-12.81h0ZM365.01,455.21h56.24l-29.08-48.92h-.1l-27.07,48.92h.01ZM552.8,483.98v-98.98c0-6.24-1.86-10.69-5.59-13.27-3.77-2.58-10.21-3.88-19.32-3.88h-2.81v-6.11h100.21c33.45,0,59.46,6.42,78.12,19.24,18.66,12.82,28.02,30.67,28.02,53.55s-10.11,40.66-30.38,53.47c-20.22,12.82-48.49,19.24-84.71,19.24h-91.1v-6.1h2.81c9.01,0,15.39-1.31,19.16-3.92,3.72-2.58,5.59-6.99,5.59-13.24h0ZM602.15,486.77c0,4.84,1.16,8.01,3.47,9.56s6.89,2.23,13.78,2.01c20.07-.63,34.96-5.75,44.67-15.43,10.41-10.31,15.59-26.44,15.49-48.39,0-21.07-5.08-36.99-15.25-47.76-10.21-10.77-25.1-16.17-44.77-16.24-7,0-11.62.81-13.94,2.44-2.31,1.62-3.47,4.84-3.47,9.67v104.13h.02ZM769.87,483.98v-98.98c0-6.24-1.86-10.69-5.59-13.27-3.77-2.58-10.21-3.88-19.32-3.88h-2.82v-6.11h100.21c33.45,0,59.46,6.42,78.12,19.24,18.66,12.82,28.02,30.67,28.02,53.55s-10.11,40.66-30.38,53.47c-20.22,12.82-48.49,19.24-84.71,19.24h-91.1v-6.1h2.81c9.01,0,15.39-1.31,19.16-3.92,3.73-2.58,5.59-6.99,5.59-13.24h.01ZM819.22,486.77c0,4.84,1.16,8.01,3.47,9.56s6.89,2.23,13.78,2.01c20.07-.63,34.96-5.75,44.67-15.43,10.41-10.31,15.59-26.44,15.49-48.39,0-21.07-5.08-36.99-15.24-47.76-10.21-10.77-25.1-16.17-44.77-16.24-7,0-11.62.81-13.93,2.44-2.32,1.62-3.47,4.84-3.47,9.67v104.13h0Z"/>
    </g>
    <g class="cls-4">
      <text class="cls-3" transform="translate(217.46 701.16)"><tspan x="0" y="0">Skills Driven. Job Led</tspan></text>
    </g>
  </g>
</svg>