<?xml version="1.0" encoding="UTF-8"?>
<svg id="Layer_1" data-name="Layer 1" xmlns="http://www.w3.org/2000/svg" viewBox="0 0 152 69">
  <defs>
    <style>
      .cls-1 {
        fill: #58595b;
      }

      .cls-1, .cls-2, .cls-3, .cls-4 {
        fill-rule: evenodd;
      }

      .cls-2 {
        fill: #ffd215;
      }

      .cls-3 {
        fill: #231f20;
      }
    </style>
  </defs>
  <path class="cls-1" d="M149,46.74c-.27-.34-.51-.57-.84-.84-1.35-1.06-5.5-5.12-6.71-6.02-.81.63-1.48,2.06-3.98,3.29-1.86.92-4.11,1.17-6.33.61-7.97-2.03-8.03-15.53.08-17.59,2.05-.52,4.42-.28,6.17.59,1.04.51,2.38,1.5,3.13,2.33.29.32.59.74.92,1.01l7.55-6.85c-.75-1.25-2.64-2.93-3.91-3.78-11.74-7.85-32.05-2.34-32.07,15.46-.04,18.02,20.49,23.34,32.01,15.62,1.36-.9,3.25-2.54,3.99-3.82"/>
  <path class="cls-1" d="M57.24,53.53c.67-.13,3.57-.76,6.21-2.54,1.42-.94,2.42-1.78,3.55-2.94.21-.23.84-1,1-1.28l-7.57-6.86c-1.44,1.35-1.78,2.2-3.98,3.29-4.82,2.44-12.23.19-12.27-8.12-.04-9.92,10.3-11.57,15.34-5.96.33.38.51.66.9,1.02l7.56-6.86c-.61-1.13-2.65-2.9-3.79-3.71-.48-.34-1.04-.7-1.6-1.01-11.52-6.34-29.86-.89-30.58,15.37-.23,5.2,1.24,9.77,4.42,13.52.47.55.94.81,1.28,1.35.45.34.73.62,1.2.96.44.32.79.58,1.25.9.57.4,2.07,1.27,2.81,1.54,3.34,1.12,4.59,1.71,8.51,1.78,2.58.07,4.26-.16,5.75-.46"/>
  <path class="cls-2" d="M0,1c1.7.19,3.74.4,5.38.76,1.66.36,3.24.85,4.76,1.42,3.79,1.4,6.87,3.29,9.77,5.56l1.67,1.42c.53.57,1.06.94,1.59,1.51l1.47,1.62c.56.57,1.51,1.9,2.04,2.57.39.49.35.39.19,1.1-.35,1.63-.86,3.53-1.1,5.16l3.45-2.46c.35.43,1.38,2.2,1.74,2.87l.33.45c.25-1.54.6-3.11.88-4.67.11-.57.01-.62.48-.89l2.69-1.49c5.49-2.8,12.05-4.18,18.39-3.77,3.13.2,4.27.43,7.08,1.25.53.16,1.71.54,2.19.57-4.93-1.95-9.77-3.49-15.12-4.42-10.44-1.79-16.03.53-16.53.48-.2-.01-.28-.15-.41-.25-.13-.11-.21-.17-.36-.29-.69-.57-2.1-1.54-2.89-2.01C21.75,3.97,16.09,2.51,9.11,1.6c-1.43-.18-2.94-.38-4.39-.48L0,1Z"/>
  <path class="cls-3" d="M147.94,17v-3h.97l.57,2.05.57-2.05h.97v3h-.59v-2.36l-.64,2.36h-.62l-.62-2.36v2.36h-.59ZM145.94,17v-2.49h-.94v-.51h2.52v.51h-.94v2.49h-.65Z"/>
  <path class="cls-4" d="M84.13,43.5c3.18.09,7.38.29,9.82-1.13l.11-.07.11-.07.11-.07s.07-.04.11-.07c.04-.03.07-.04.11-.07l.11-.07.09-.07s.07-.05.09-.07l.09-.08s.07-.05.09-.08l.09-.08.09-.08s.07-.05.09-.08c.03-.03.07-.05.09-.08l.09-.08s.05-.05.09-.08c.03-.03.05-.05.08-.08l.08-.09.08-.09s.05-.07.08-.09c.03-.03.05-.07.08-.09l.08-.09s.05-.07.08-.09l.08-.09s.05-.07.08-.09c.03-.03.05-.07.08-.11.03-.04.05-.07.07-.11.03-.04.05-.07.07-.11.01-.04.04-.07.07-.11.03-.04.04-.07.07-.11.03-.04.04-.07.07-.11.03-.04.04-.08.07-.11.03-.04.04-.08.07-.11.01-.04.04-.08.07-.12.01-.04.04-.08.05-.12.01-.04.04-.08.05-.12.01-.04.04-.08.05-.12.01-.04.04-.08.05-.12l.05-.12s.03-.08.05-.12c.01-.04.03-.08.05-.13.01-.04.03-.08.04-.13h0s.03-.09.04-.13c.01-.04.03-.09.04-.13l.04-.13s.03-.09.04-.13c.01-.04.03-.09.04-.13.01-.05.03-.09.04-.15.01-.05.03-.09.03-.15.01-.05.03-.09.03-.15.01-.05.01-.09.03-.15l.03-.15h0c.01-.05.01-.11.03-.15h0c.01-.05.01-.11.03-.16h0c.01-.05.01-.11.03-.16.01-.05.01-.11.01-.16s.01-.11.01-.16v-.16c.01-.05.03-.11.03-.16s.01-.11.01-.17c0-.05,0-.11.01-.17h0v-.52h0v-.52c0-.05,0-.11-.01-.17,0-.05,0-.11-.01-.17v-.16c-.01-.05-.03-.11-.03-.16s-.01-.11-.01-.16-.01-.11-.01-.16-.01-.11-.01-.16c-.01-.05-.01-.11-.03-.16h0c-.01-.05-.01-.11-.03-.15h0c-.01-.05-.01-.11-.03-.15-.01-.05-.01-.09-.03-.15h0c-.01-.05-.01-.09-.03-.15-.01-.05-.03-.09-.03-.15-.01-.05-.03-.09-.04-.15-.01-.05-.03-.09-.04-.15-.01-.04-.03-.09-.04-.13-.01-.04-.03-.09-.04-.13l-.04-.13s-.03-.09-.04-.13c-.01-.04-.03-.09-.04-.13-.01-.04-.03-.09-.05-.13-.01-.04-.03-.08-.05-.13-.01-.04-.03-.08-.05-.12h0s-.04-.08-.05-.12c-.01-.04-.04-.08-.05-.12-.01-.04-.04-.08-.05-.12l-.05-.12s-.04-.08-.05-.12c-.01-.04-.04-.08-.07-.12-.03-.04-.04-.08-.07-.11-.03-.04-.04-.08-.07-.11-.03-.04-.04-.08-.07-.11-.03-.04-.04-.07-.07-.11-.03-.04-.04-.07-.07-.11-.03-.04-.05-.07-.07-.11-.03-.04-.05-.07-.07-.11-.03-.04-.05-.07-.07-.11-.03-.04-.05-.07-.08-.09-.03-.03-.05-.07-.08-.09-.03-.03-.05-.07-.08-.09-.03-.03-.05-.07-.08-.09-.03-.03-.05-.07-.08-.09h0s-.05-.07-.08-.09c-.03-.03-.05-.05-.08-.09-.03-.03-.05-.05-.08-.09l-.08-.08h0s-.05-.05-.09-.08c-.03-.03-.05-.05-.09-.08l-.09-.08s-.07-.05-.09-.08c-.03-.03-.07-.05-.09-.08l-.09-.08s-.07-.05-.09-.08c-.03-.03-.07-.05-.09-.07l-.09-.07h0s-.07-.04-.09-.07l-.11-.07-.11-.07-.11-.07-.11-.07-.11-.07s-.08-.04-.12-.07c-.04-.03-.08-.04-.12-.07-.04-.03-.08-.04-.12-.07h0s-.08-.04-.13-.07c-.04-.03-.08-.04-.13-.05-.04-.01-.09-.04-.13-.05h0s-.09-.04-.13-.05c-.04-.01-.09-.04-.13-.05-.04-.01-.09-.04-.13-.05-.04-.01-.09-.03-.13-.05h0s-.09-.03-.13-.04c-.05-.01-.09-.03-.15-.04-.05-.01-.09-.03-.15-.04h0c-.05-.01-.09-.03-.15-.04-.05-.01-.09-.03-.15-.04l-.15-.04h0c-.05-.01-.09-.03-.15-.04-.05-.01-.09-.03-.15-.03-.05-.01-.11-.03-.15-.03l-.15-.03-.15-.03-.16-.03-.16-.03-.16-.03h0l-.16-.03h-.16s-.16-.03-.16-.03h-.16s-.16-.03-.16-.03h-.16s-.16-.03-.16-.03h-.16s-.16-.03-.16-.03h-.16s-.16-.03-.16-.03h-.16s-.16-.01-.16-.01h-4.32l-.12,17.08ZM72,52.92c2.12.16,11.09.03,13.93.03,4.75,0,8.26.09,12.53-1.41,6.51-2.28,11.51-7.82,11.54-16.48.03-8.73-4.96-14.23-11.45-16.56-4.22-1.52-7.78-1.44-12.5-1.44-2.87,0-11.93-.15-14.04.03v35.84Z"/>
  <path class="cls-4" d="M149,46.74c-.27-.34-.51-.57-.84-.84-1.35-1.06-5.5-5.12-6.71-6.02-.81.63-1.48,2.06-3.98,3.29-1.86.92-4.11,1.17-6.33.61-7.97-2.03-8.03-15.53.08-17.59,2.05-.52,4.42-.28,6.17.59,1.04.51,2.38,1.5,3.13,2.33.29.32.59.74.92,1.01l7.55-6.85c-.75-1.25-2.64-2.93-3.91-3.78-11.74-7.85-32.05-2.34-32.07,15.46-.04,18.02,20.49,23.34,32.01,15.62,1.36-.9,3.25-2.54,3.99-3.82"/>
  <path class="cls-4" d="M57.24,53.53c.67-.13,3.57-.76,6.21-2.54,1.42-.94,2.42-1.78,3.55-2.94.21-.23.84-1,1-1.28l-7.57-6.86c-1.44,1.35-1.78,2.2-3.98,3.29-4.82,2.44-12.23.19-12.27-8.12-.04-9.92,10.3-11.57,15.34-5.96.33.38.51.66.9,1.02l7.56-6.86c-.61-1.13-2.65-2.9-3.79-3.71-.48-.34-1.04-.7-1.6-1.01-11.52-6.34-29.86-.89-30.58,15.37-.23,5.2,1.24,9.77,4.42,13.52.47.55.94.81,1.28,1.35.45.34.73.62,1.2.96.44.32.79.58,1.25.9.57.4,2.07,1.27,2.81,1.54,3.34,1.12,4.59,1.71,8.51,1.78,2.58.07,4.26-.16,5.75-.46"/>
  <path class="cls-2" d="M0,1c1.7.19,3.74.4,5.38.76,1.66.36,3.24.85,4.76,1.42,3.79,1.4,6.87,3.29,9.77,5.56l1.67,1.42c.53.57,1.06.94,1.59,1.51l1.47,1.62c.56.57,1.51,1.9,2.04,2.57.39.49.35.39.19,1.1-.35,1.63-.86,3.53-1.1,5.16l3.45-2.46c.35.43,1.38,2.2,1.74,2.87l.33.45c.25-1.54.6-3.11.88-4.67.11-.57.01-.62.48-.89l2.69-1.49c5.49-2.8,12.05-4.18,18.39-3.77,3.13.2,4.27.43,7.08,1.25.53.16,1.71.54,2.19.57-4.93-1.95-9.77-3.49-15.12-4.42-10.44-1.79-16.03.53-16.53.48-.2-.01-.28-.15-.41-.25-.13-.11-.21-.17-.36-.29-.69-.57-2.1-1.54-2.89-2.01C21.75,3.97,16.09,2.51,9.11,1.6c-1.43-.18-2.94-.38-4.39-.48L0,1Z"/>
  <path class="cls-4" d="M37,58h2v10h-2v-10Z"/>
  <path class="cls-4" d="M50,67.98h-2.03v-3.98c0-.84-.04-1.4-.13-1.63-.09-.25-.23-.44-.43-.57-.2-.13-.43-.21-.71-.21-.36,0-.67.1-.95.29-.29.19-.47.46-.57.78-.1.32-.16.93-.16,1.79v3.54h-2.03v-7.84h1.87v1.15c.68-.88,1.51-1.31,2.53-1.31.45,0,.86.09,1.24.25.37.16.66.37.85.63.19.25.33.54.4.87.07.32.12.79.12,1.4v4.84Z"/>
  <path class="cls-4" d="M56.83,60.59v1.52h-1.23v2.94c0,.6.01.94.04,1.03.03.1.08.18.17.24.09.07.18.1.31.1.17,0,.41-.05.73-.19l.15,1.48c-.42.19-.89.29-1.42.29-.32,0-.61-.05-.87-.18-.26-.12-.45-.27-.58-.45-.13-.19-.2-.43-.25-.75-.04-.22-.05-.68-.05-1.36v-3.17h-.83v-1.52h.83v-1.44l1.8-1.13v2.57h1.2Z"/>
  <path class="cls-4" d="M64.31,63.35c-.01-.59-.13-1.03-.37-1.34-.24-.3-.53-.46-.88-.46-.38,0-.68.16-.92.49-.24.32-.36.76-.35,1.31h2.52ZM64.2,65.39l1.7.35c-.22.73-.57,1.31-1.03,1.7-.47.39-1.06.57-1.76.57-1.12,0-1.94-.43-2.47-1.31-.42-.7-.64-1.58-.64-2.64,0-1.26.28-2.27.83-2.97.56-.72,1.26-1.08,2.11-1.08.95,0,1.7.37,2.26,1.13.56.75.82,1.91.8,3.46h-4.25c.01.6.15,1.06.41,1.39.27.33.59.5.98.5.27,0,.49-.09.66-.26.17-.19.31-.46.4-.85Z"/>
  <path class="cls-4" d="M71.63,68h-1.63v-7.84h1.51v1.12c.25-.53.5-.87.71-1.03.21-.16.44-.25.71-.25.37,0,.73.13,1.08.4l-.51,1.81c-.28-.22-.53-.34-.76-.34s-.43.07-.58.24c-.16.16-.28.44-.37.87-.09.41-.14,1.29-.14,2.62v2.41Z"/>
  <path class="cls-4" d="M84,67.98h-2.03v-3.98c0-.84-.04-1.4-.13-1.63-.09-.25-.23-.44-.43-.57-.2-.13-.43-.21-.71-.21-.36,0-.67.1-.95.29-.29.19-.47.46-.57.78-.1.32-.16.93-.16,1.79v3.54h-2.03v-7.84h1.87v1.15c.68-.88,1.51-1.31,2.53-1.31.45,0,.86.09,1.24.25.37.16.65.37.85.63.19.25.33.54.4.87.07.32.12.79.12,1.4v4.84Z"/>
  <path class="cls-4" d="M91.64,64.15c-.25.09-.66.19-1.21.32-.55.11-.91.24-1.08.34-.25.19-.39.43-.39.72s.1.53.31.73c.21.2.46.32.79.32.35,0,.7-.11,1.02-.36.24-.19.39-.4.48-.67.06-.17.07-.5.07-.99v-.4h.01ZM88.99,62.51l-1.78-.33c.2-.75.55-1.29,1.04-1.65.49-.36,1.22-.53,2.19-.53.88,0,1.54.1,1.96.32.43.22.73.49.91.82.18.33.27.93.27,1.81l-.03,2.36c0,.68.03,1.16.1,1.48.06.32.18.66.35,1.02h-1.96c-.06-.13-.11-.33-.2-.59-.03-.11-.06-.2-.07-.23-.34.35-.7.59-1.08.76-.38.17-.78.26-1.22.26-.77,0-1.38-.21-1.81-.65s-.66-.96-.66-1.62c0-.43.1-.82.31-1.15.2-.33.48-.6.84-.78.37-.17.88-.33,1.57-.47.93-.17,1.56-.35,1.92-.5v-.2c0-.39-.1-.68-.28-.85-.2-.17-.55-.24-1.07-.24-.35,0-.63.07-.83.21-.2.14-.35.4-.48.76Z"/>
  <path class="cls-4" d="M100.79,60.59v1.52h-1.53v2.94c0,.6.02.94.05,1.03.03.1.1.18.21.24.11.07.22.1.38.1.21,0,.51-.05.91-.19l.19,1.48c-.53.19-1.12.29-1.77.29-.4,0-.77-.05-1.09-.18-.32-.12-.56-.27-.72-.45-.16-.19-.26-.43-.32-.75-.05-.22-.06-.68-.06-1.36v-3.17h-1.04v-1.52h1.04v-1.44l2.25-1.13v2.57h1.5Z"/>
  <path class="cls-4" d="M104,68v-7.25h2v7.25h-2ZM104,59.77v-1.77h2v1.77h-2Z"/>
  <path class="cls-4" d="M110.85,63.98c0,.76.17,1.33.47,1.73.32.4.71.6,1.18.6s.85-.2,1.17-.6c.32-.4.47-.99.47-1.75s-.15-1.32-.47-1.72c-.32-.4-.71-.6-1.17-.6s-.87.2-1.18.6c-.32.4-.47.97-.47,1.73M109,63.88c0-.67.14-1.32.45-1.95.29-.63.71-1.1,1.25-1.43.54-.33,1.13-.5,1.8-.5,1.03,0,1.86.37,2.52,1.13.65.74.98,1.7.98,2.85s-.33,2.12-.99,2.88c-.66.76-1.49,1.14-2.5,1.14-.62,0-1.21-.16-1.79-.47-.56-.32-.99-.77-1.29-1.39-.29-.64-.43-1.39-.43-2.26Z"/>
  <path class="cls-4" d="M126,67.98h-1.74v-3.98c0-.84-.04-1.4-.11-1.63-.07-.25-.2-.44-.37-.57-.17-.13-.37-.21-.6-.21-.31,0-.58.1-.81.29-.25.19-.41.46-.49.78-.09.32-.14.93-.14,1.79v3.54h-1.74v-7.84h1.6v1.15c.58-.88,1.29-1.31,2.17-1.31.38,0,.74.09,1.06.25.32.16.55.37.73.63.16.25.28.54.35.87.06.32.1.79.1,1.4v4.84Z"/>
  <path class="cls-4" d="M134.64,64.15c-.25.09-.66.19-1.21.32-.55.11-.91.24-1.08.34-.25.19-.39.43-.39.72s.1.53.31.73c.21.2.46.32.79.32.35,0,.7-.11,1.02-.36.24-.19.39-.4.48-.67.06-.17.07-.5.07-.99v-.4h.01ZM131.99,62.51l-1.78-.33c.2-.75.55-1.29,1.04-1.65.49-.36,1.22-.53,2.19-.53.88,0,1.54.1,1.96.32.43.22.73.49.91.82.18.33.27.93.27,1.81l-.03,2.36c0,.68.03,1.16.1,1.48.06.32.18.66.35,1.02h-1.96c-.06-.13-.11-.33-.2-.59-.03-.11-.06-.2-.07-.23-.34.35-.7.59-1.08.76-.38.17-.79.26-1.22.26-.77,0-1.38-.21-1.81-.65s-.66-.96-.66-1.62c0-.43.1-.82.31-1.15.2-.33.48-.6.84-.78.37-.17.88-.33,1.57-.47.93-.17,1.56-.35,1.92-.5v-.2c0-.39-.1-.68-.28-.85-.2-.17-.55-.24-1.07-.24-.35,0-.63.07-.83.21-.2.14-.35.4-.48.76Z"/>
  <path class="cls-4" d="M140,58h2v10h-2v-10Z"/>
</svg>