<?xml version="1.0" encoding="UTF-8"?>
<svg id="Layer_1" data-name="Layer 1" xmlns="http://www.w3.org/2000/svg" xmlns:xlink="http://www.w3.org/1999/xlink" viewBox="0 0 181.55 34.37">
  <defs>
    <style>
      .cls-1 {
        opacity: .9;
      }

      .cls-2 {
        fill: #fff;
      }

      .cls-3 {
        mask: url(#mask);
      }

      .cls-4 {
        fill: #ea2229;
      }

      .cls-5 {
        fill: #ffed00;
      }

      .cls-6 {
        filter: url(#luminosity-noclip);
      }
    </style>
    <filter id="luminosity-noclip" x="70.03" y="3.32" width="28.31" height="27.72" color-interpolation-filters="sRGB" filterUnits="userSpaceOnUse">
      <feFlood flood-color="#fff" result="bg"/>
      <feBlend in="SourceGraphic" in2="bg"/>
    </filter>
    <mask id="mask" x="70.03" y="3.32" width="28.31" height="27.72" maskUnits="userSpaceOnUse">
      <g class="cls-6">
        <rect x="79.66" y="12.39" width="18.62" height="8.98" transform="translate(-.19 1.04) rotate(-.67)"/>
      </g>
    </mask>
  </defs>
  <g class="cls-1">
    <rect class="cls-4" y="0" width="181.55" height="34.37"/>
    <g>
      <g>
        <g class="cls-3">
          <path class="cls-2" d="M70.03,17.06c.09-8.84,5.05-13.81,11.63-13.74,6.62.07,11.43,5.14,11.34,13.98-.09,8.84-5.01,13.81-11.63,13.74-6.58-.07-11.43-5.14-11.34-13.98ZM86.76,17.24c.06-6.09-2.05-8.64-5.15-8.67-3.06-.03-5.23,2.47-5.3,8.56-.06,6.09,2.05,8.64,5.11,8.67,3.1.03,5.27-2.47,5.34-8.56Z"/>
        </g>
        <path class="cls-2" d="M85.14,15.21c-.01-1.16.73-1.84,1.73-1.85,1-.01,1.75.65,1.77,1.81.01,1.17-.73,1.84-1.73,1.85-1,.01-1.75-.64-1.77-1.81ZM90.73,13.41l1.59-.02-4.42,6.62-1.59.02,4.42-6.62ZM87.3,15.18c0-.63-.22-.81-.42-.81s-.41.19-.4.82c0,.63.22.81.42.81s.41-.19.4-.82ZM89.99,18.25c-.01-1.16.73-1.84,1.73-1.85,1-.01,1.75.65,1.77,1.81.01,1.17-.73,1.84-1.73,1.85-1,.01-1.75-.64-1.77-1.81ZM92.15,18.23c0-.63-.22-.81-.42-.81s-.41.19-.4.82c0,.63.22.81.42.81s.41-.19.4-.82Z"/>
      </g>
      <g>
        <g>
          <path class="cls-2" d="M98.86,8.2v7.9h-1.58v-7.9h1.58Z"/>
          <path class="cls-2" d="M105.7,10.44c.46.47.69,1.13.69,1.97v3.68h-1.58v-3.46c0-.5-.12-.88-.37-1.15s-.59-.4-1.02-.4-.78.13-1.04.4-.38.65-.38,1.15v3.46h-1.58v-6.27h1.58v.78c.21-.27.48-.48.81-.64.33-.15.69-.23,1.08-.23.75,0,1.35.24,1.81.71Z"/>
          <path class="cls-2" d="M109.74,11.13v3.03c0,.21.05.36.15.46.1.09.27.14.51.14h.74v1.33h-1c-1.33,0-2-.65-2-1.95v-3.02h-.75v-1.3h.75v-1.55h1.59v1.55h1.4v1.3h-1.4Z"/>
          <path class="cls-2" d="M118.07,13.44h-4.58c.04.45.2.81.48,1.06.28.26.62.38,1.03.38.59,0,1.01-.25,1.25-.76h1.71c-.18.6-.53,1.1-1.04,1.49-.51.39-1.14.58-1.89.58-.6,0-1.14-.13-1.62-.4s-.85-.65-1.12-1.14-.4-1.06-.4-1.7.13-1.22.4-1.71c.26-.49.63-.87,1.11-1.13.47-.26,1.02-.4,1.64-.4s1.13.13,1.6.38c.47.26.84.62,1.1,1.09s.39,1.01.39,1.62c0,.23-.02.43-.05.61ZM116.47,12.37c0-.41-.15-.73-.44-.98-.29-.24-.64-.37-1.05-.37-.39,0-.72.12-.99.36-.27.24-.43.57-.49.99h2.97Z"/>
          <path class="cls-2" d="M121.64,10.02c.33-.19.7-.28,1.13-.28v1.66h-.42c-.5,0-.87.12-1.12.35-.25.23-.38.64-.38,1.22v3.12h-1.58v-6.27h1.58v.97c.2-.33.47-.59.8-.78Z"/>
          <path class="cls-2" d="M129.61,13.44h-4.58c.04.45.2.81.48,1.06.28.26.62.38,1.03.38.59,0,1.01-.25,1.25-.76h1.71c-.18.6-.53,1.1-1.04,1.49-.51.39-1.14.58-1.89.58-.6,0-1.14-.13-1.62-.4s-.85-.65-1.12-1.14-.4-1.06-.4-1.7.13-1.22.4-1.71c.26-.49.63-.87,1.11-1.13.47-.26,1.02-.4,1.64-.4s1.13.13,1.6.38c.47.26.84.62,1.1,1.09s.39,1.01.39,1.62c0,.23-.02.43-.05.61ZM128.02,12.37c0-.41-.15-.73-.44-.98-.29-.24-.64-.37-1.05-.37-.39,0-.72.12-.99.36-.27.24-.43.57-.49.99h2.97Z"/>
          <path class="cls-2" d="M131.83,15.92c-.41-.18-.73-.44-.97-.75-.24-.32-.37-.67-.39-1.05h1.59c.03.24.15.44.36.6.21.16.47.24.77.24s.54-.06.71-.18.25-.28.25-.46c0-.2-.1-.36-.31-.46-.21-.1-.54-.21-.99-.33-.47-.11-.85-.23-1.15-.35s-.55-.31-.77-.55c-.21-.25-.32-.58-.32-1.01,0-.35.1-.66.3-.95.2-.29.49-.51.86-.68.37-.17.81-.25,1.32-.25.75,0,1.34.19,1.79.56.45.37.69.88.74,1.51h-1.52c-.02-.25-.13-.45-.31-.59-.18-.15-.43-.22-.74-.22-.29,0-.51.05-.66.16-.15.11-.23.25-.23.44,0,.21.11.37.32.48.21.11.54.22.98.33.45.11.83.23,1.12.35.29.12.55.31.76.56.21.25.33.59.33,1,0,.36-.1.69-.3.97s-.49.51-.86.67c-.37.16-.81.24-1.31.24s-.97-.09-1.38-.28Z"/>
          <path class="cls-2" d="M138.82,11.13v3.03c0,.21.05.36.15.46.1.09.27.14.51.14h.74v1.33h-1c-1.33,0-2-.65-2-1.95v-3.02h-.75v-1.3h.75v-1.55h1.59v1.55h1.4v1.3h-1.4Z"/>
        </g>
        <g>
          <g>
            <path class="cls-2" d="M122.06,24.62h-3.14l-.52,1.5h-1.66l2.84-7.91h1.84l2.84,7.91h-1.67l-.52-1.5ZM121.63,23.35l-1.14-3.3-1.14,3.3h2.29Z"/>
            <path class="cls-2" d="M127.93,24.66l1.58-4.81h1.68l-2.32,6.27h-1.92l-2.31-6.27h1.7l1.58,4.81Z"/>
            <path class="cls-2" d="M132.07,21.28c.25-.49.6-.87,1.03-1.13.43-.26.92-.4,1.45-.4.47,0,.88.09,1.23.28.35.19.63.43.84.71v-.89h1.6v6.27h-1.6v-.92c-.2.29-.48.54-.84.73-.36.19-.77.29-1.24.29-.53,0-1.01-.14-1.44-.41s-.78-.65-1.03-1.15c-.25-.49-.38-1.06-.38-1.7s.13-1.2.38-1.69ZM136.39,22c-.15-.28-.35-.49-.61-.63-.26-.15-.53-.22-.83-.22s-.57.07-.81.22c-.25.14-.45.35-.61.63-.15.28-.23.6-.23.98s.08.71.23.99c.15.28.36.5.61.65.25.15.52.23.81.23s.57-.07.83-.22c.26-.15.46-.36.61-.63.15-.28.23-.61.23-.99s-.08-.71-.23-.99Z"/>
            <path class="cls-2" d="M139.87,18.84c-.18-.18-.28-.4-.28-.66s.09-.48.28-.66.42-.27.7-.27.51.09.7.27.28.4.28.66-.09.48-.28.66-.42.27-.7.27-.51-.09-.7-.27ZM141.35,19.85v6.27h-1.58v-6.27h1.58Z"/>
            <path class="cls-2" d="M144.49,17.75v8.37h-1.58v-8.37h1.58Z"/>
            <path class="cls-2" d="M146.02,21.28c.25-.49.6-.87,1.03-1.13.43-.26.92-.4,1.45-.4.47,0,.88.09,1.23.28.35.19.63.43.84.71v-.89h1.6v6.27h-1.6v-.92c-.2.29-.48.54-.84.73-.36.19-.77.29-1.24.29-.53,0-1.01-.14-1.44-.41s-.78-.65-1.03-1.15c-.25-.49-.38-1.06-.38-1.7s.13-1.2.38-1.69ZM150.35,22c-.15-.28-.35-.49-.61-.63-.26-.15-.53-.22-.83-.22s-.57.07-.81.22c-.25.14-.45.35-.61.63-.15.28-.23.6-.23.98s.08.71.23.99c.15.28.36.5.61.65.25.15.52.23.81.23s.57-.07.83-.22c.26-.15.46-.36.61-.63.15-.28.23-.61.23-.99s-.08-.71-.23-.99Z"/>
            <path class="cls-2" d="M156.15,20.03c.36-.19.77-.28,1.23-.28.54,0,1.02.13,1.45.4.43.26.78.64,1.03,1.13.25.49.38,1.05.38,1.69s-.13,1.21-.38,1.7c-.25.49-.6.88-1.03,1.15s-.92.41-1.45.41c-.47,0-.88-.09-1.23-.28-.35-.18-.63-.42-.84-.72v.89h-1.58v-8.37h1.58v3.02c.2-.3.48-.55.84-.73ZM158.39,21.99c-.15-.27-.36-.48-.61-.63-.25-.14-.53-.22-.82-.22s-.56.07-.81.22c-.25.15-.46.36-.61.64-.15.28-.23.61-.23.98s.08.71.23.98c.16.28.36.49.61.64.25.15.52.22.81.22s.57-.08.82-.23c.25-.15.46-.37.61-.64.15-.28.23-.61.23-1s-.08-.7-.23-.98Z"/>
            <path class="cls-2" d="M162.98,17.75v8.37h-1.58v-8.37h1.58Z"/>
            <path class="cls-2" d="M170.32,23.46h-4.58c.04.45.2.81.48,1.06.28.26.62.38,1.03.38.59,0,1.01-.25,1.25-.76h1.71c-.18.6-.53,1.1-1.04,1.49s-1.14.58-1.89.58c-.6,0-1.14-.13-1.62-.4s-.85-.65-1.12-1.14-.4-1.06-.4-1.7.13-1.22.4-1.71c.26-.49.63-.87,1.11-1.13.47-.26,1.02-.4,1.64-.4s1.13.13,1.6.38c.47.26.84.62,1.1,1.09.26.47.39,1.01.39,1.62,0,.23-.02.43-.05.61ZM168.72,22.4c0-.41-.15-.73-.44-.98-.29-.25-.64-.37-1.05-.37-.39,0-.72.12-.99.36-.27.24-.43.57-.49.99h2.97Z"/>
            <path class="cls-2" d="M172.04,25.93c-.18-.18-.28-.4-.28-.66s.09-.48.28-.66c.18-.18.42-.27.71-.27s.51.09.69.27c.18.18.27.4.27.66s-.09.49-.27.66c-.18.18-.41.27-.69.27s-.52-.09-.71-.27ZM173.56,18.09l-.18,5.46h-1.33l-.19-5.46h1.71Z"/>
          </g>
          <g>
            <path class="cls-5" d="M98.46,19.56v1.98h2.66v1.26h-2.66v2.09h3v1.29h-4.58v-7.91h4.58v1.29h-3Z"/>
            <path class="cls-5" d="M111.5,18.28v7.9h-1.58v-5.13l-2.12,5.13h-1.2l-2.13-5.13v5.13h-1.58v-7.9h1.8l2.51,5.87,2.51-5.87h1.79Z"/>
            <path class="cls-5" d="M114.65,18.28v7.9h-1.58v-7.9h1.58Z"/>
          </g>
        </g>
      </g>
      <g>
        <path class="cls-2" d="M9.42,13.4h2.6v1.26h-4.19v-7.9h1.58v6.64Z"/>
        <path class="cls-2" d="M18.81,12h-4.58c.04.45.2.81.48,1.06.28.26.62.38,1.03.38.59,0,1.01-.25,1.25-.76h1.71c-.18.6-.53,1.1-1.04,1.49-.51.39-1.14.58-1.89.58-.6,0-1.14-.13-1.62-.4s-.85-.65-1.12-1.14-.4-1.06-.4-1.7.13-1.22.4-1.71c.26-.49.63-.87,1.11-1.13.47-.26,1.02-.4,1.64-.4s1.13.13,1.6.38c.47.26.84.62,1.1,1.09s.39,1.01.39,1.62c0,.23-.02.43-.05.61ZM17.22,10.93c0-.41-.15-.73-.44-.98-.29-.24-.64-.37-1.05-.37-.39,0-.72.12-.99.36-.27.24-.43.57-.49.99h2.97Z"/>
        <path class="cls-2" d="M19.98,9.81c.25-.49.6-.87,1.03-1.13.43-.26.92-.4,1.45-.4.47,0,.88.09,1.23.28.35.19.63.43.84.71v-.89h1.6v6.27h-1.6v-.92c-.2.29-.48.54-.84.73-.36.19-.77.29-1.24.29-.53,0-1.01-.14-1.44-.41s-.78-.65-1.03-1.15c-.25-.49-.38-1.06-.38-1.7s.13-1.2.38-1.69ZM24.31,10.53c-.15-.28-.35-.49-.61-.63-.26-.15-.53-.22-.83-.22s-.57.07-.81.21c-.25.14-.45.35-.61.63s-.23.6-.23.98.08.71.23.99.36.5.61.65c.25.15.52.23.81.23s.57-.07.83-.22c.26-.15.46-.36.61-.63.15-.28.23-.6.23-.99s-.08-.71-.23-.99Z"/>
        <path class="cls-2" d="M30.06,8.58c.33-.19.7-.28,1.13-.28v1.66h-.42c-.5,0-.87.12-1.12.35-.25.23-.38.64-.38,1.22v3.12h-1.58v-6.27h1.58v.97c.2-.33.47-.59.8-.78Z"/>
        <path class="cls-2" d="M37.53,9c.46.47.69,1.13.69,1.97v3.68h-1.58v-3.46c0-.5-.12-.88-.37-1.15s-.59-.4-1.02-.4-.78.13-1.04.4-.38.65-.38,1.15v3.46h-1.58v-6.27h1.58v.78c.21-.27.48-.48.81-.64.33-.15.69-.23,1.08-.23.75,0,1.35.24,1.81.71Z"/>
        <path class="cls-2" d="M49.17,14.65h-1.58l-3.59-5.42v5.42h-1.58v-7.91h1.58l3.59,5.43v-5.43h1.58v7.91Z"/>
        <path class="cls-2" d="M51.89,14.35c-.48-.27-.86-.65-1.14-1.14-.28-.49-.41-1.06-.41-1.7s.14-1.21.42-1.7c.28-.49.67-.87,1.16-1.14s1.04-.4,1.64-.4,1.15.13,1.64.4c.49.27.88.65,1.16,1.14.28.49.42,1.06.42,1.7s-.15,1.21-.44,1.7-.68.87-1.18,1.14c-.49.27-1.05.4-1.66.4s-1.15-.13-1.63-.4ZM54.33,13.17c.25-.14.45-.35.61-.63.15-.28.23-.62.23-1.02,0-.6-.16-1.05-.47-1.37-.31-.32-.7-.48-1.15-.48s-.83.16-1.14.48c-.31.32-.46.78-.46,1.37s.15,1.05.45,1.37c.3.32.67.48,1.13.48.29,0,.56-.07.81-.21Z"/>
        <path class="cls-2" d="M66.64,8.39l-1.83,6.27h-1.71l-1.14-4.38-1.14,4.38h-1.72l-1.84-6.27h1.61l1.11,4.77,1.2-4.77h1.67l1.18,4.76,1.11-4.76h1.52Z"/>
        <path class="cls-2" d="M13.3,20.39c-.2.37-.51.67-.94.89-.43.23-.96.34-1.61.34h-1.32v3.03h-1.58v-7.9h2.91c.61,0,1.13.11,1.56.32.43.21.75.5.97.87.21.37.32.79.32,1.26,0,.42-.1.82-.3,1.19ZM11.65,20.04c.21-.2.32-.48.32-.84,0-.77-.43-1.15-1.29-1.15h-1.26v2.3h1.26c.44,0,.76-.1.97-.3Z"/>
        <path class="cls-2" d="M14.69,19.81c.25-.49.6-.87,1.03-1.13.43-.26.92-.4,1.45-.4.47,0,.88.09,1.23.28.35.19.63.43.84.71v-.89h1.6v6.27h-1.6v-.92c-.2.29-.48.54-.84.73-.36.19-.77.29-1.24.29-.53,0-1.01-.14-1.44-.41s-.78-.65-1.03-1.15c-.25-.49-.38-1.06-.38-1.7s.13-1.19.38-1.69ZM19.02,20.53c-.15-.28-.35-.49-.61-.63-.26-.15-.53-.22-.83-.22s-.57.07-.81.21c-.25.14-.45.35-.61.63-.15.27-.23.6-.23.98s.08.71.23.99c.15.28.36.5.61.65.25.15.52.23.81.23s.57-.07.83-.22c.26-.15.46-.36.61-.63.15-.28.23-.61.23-.99s-.08-.71-.23-.99Z"/>
        <path class="cls-2" d="M28.38,18.39l-3.88,9.23h-1.69l1.36-3.12-2.51-6.11h1.78l1.62,4.38,1.64-4.38h1.69Z"/>
        <path class="cls-2" d="M33.51,23.4h2.6v1.26h-4.19v-7.9h1.58v6.64Z"/>
        <path class="cls-2" d="M37.09,19.81c.25-.49.6-.87,1.03-1.13.43-.26.92-.4,1.45-.4.47,0,.88.09,1.23.28.35.19.63.43.84.71v-.89h1.6v6.27h-1.6v-.92c-.2.29-.48.54-.84.73-.36.19-.77.29-1.24.29-.53,0-1.01-.14-1.44-.41s-.78-.65-1.03-1.15c-.25-.49-.38-1.06-.38-1.7s.13-1.19.38-1.69ZM41.41,20.53c-.15-.28-.35-.49-.61-.63-.26-.15-.53-.22-.83-.22s-.57.07-.81.21c-.25.14-.45.35-.61.63-.15.27-.23.6-.23.98s.08.71.23.99c.15.28.36.5.61.65.25.15.52.23.81.23s.57-.07.83-.22c.26-.15.46-.36.61-.63.15-.28.23-.61.23-.99s-.08-.71-.23-.99Z"/>
        <path class="cls-2" d="M46.63,19.69v3.03c0,.21.05.36.15.46.1.09.27.14.51.14h.74v1.33h-1c-1.33,0-2-.65-2-1.95v-3.02h-.75v-1.3h.75v-1.55h1.59v1.55h1.4v1.3h-1.4Z"/>
        <path class="cls-2" d="M54.95,22h-4.58c.04.45.2.81.48,1.06.28.26.62.38,1.03.38.59,0,1.01-.25,1.25-.76h1.71c-.18.6-.53,1.1-1.04,1.49s-1.14.58-1.89.58c-.6,0-1.14-.13-1.62-.4s-.85-.65-1.12-1.14-.4-1.06-.4-1.7.13-1.22.4-1.71c.26-.49.63-.87,1.11-1.13.47-.26,1.02-.4,1.64-.4s1.13.13,1.6.38c.47.26.84.62,1.1,1.09s.39,1.01.39,1.62c0,.23-.02.43-.05.61ZM53.36,20.93c0-.41-.15-.73-.44-.98-.29-.24-.64-.37-1.05-.37-.39,0-.72.12-.99.36-.27.24-.43.57-.49.99h2.97Z"/>
        <path class="cls-2" d="M58.53,18.58c.33-.19.7-.28,1.13-.28v1.66h-.42c-.5,0-.87.12-1.12.35-.25.23-.38.64-.38,1.22v3.12h-1.58v-6.27h1.58v.97c.2-.33.47-.59.8-.78Z"/>
        <path class="cls-2" d="M61.25,24.47c-.18-.18-.28-.4-.28-.66s.09-.48.28-.66c.18-.18.42-.27.71-.27s.51.09.69.27c.18.18.27.4.27.66s-.09.49-.27.66c-.18.18-.41.27-.69.27s-.52-.09-.71-.27ZM62.77,16.62l-.18,5.46h-1.33l-.19-5.46h1.71Z"/>
      </g>
    </g>
  </g>
</svg>