<svg xmlns="http://www.w3.org/2000/svg" width="100" height="100" viewBox="0 0 100 100">
  <g id="Group_49826" data-name="Group 49826" transform="translate(-7893 -16007)">
    <path id="Path_41200" data-name="Path 41200" d="M50,0A50,50,0,1,1,0,50,50,50,0,0,1,50,0Z" transform="translate(7893 16007)" fill="#904ce2"/>
    <g id="programming_for_eng" data-name="programming for eng" transform="translate(7915 16029)">
      <g id="Group_49320" data-name="Group 49320">
        <g id="Group_49319" data-name="Group 49319">
          <path id="Path_41058" data-name="Path 41058" d="M51.457,71.5H48.609c-.449,0-.813.545-.813,1.217s.364,1.217.813,1.217h2.848c1.345,0,2.44,1.638,2.44,3.652v5.6H1.627v-5.6c0-2.014,1.095-3.652,2.44-3.652H45.038c.449,0,.813-.545.813-1.217s-.364-1.217-.813-1.217H4.067C1.824,71.5,0,74.23,0,77.587V91.007c0,.672.364,1.217.813,1.217s.813-.545.813-1.217V85.622H53.9v31.387c0,.672.364,1.217.813,1.217s.813-.545.813-1.217V77.587C55.523,74.23,53.7,71.5,51.457,71.5Z" transform="translate(0 -71.5)" fill="#fff"/>
          <path id="Path_41059" data-name="Path 41059" d="M54.71,233.678a.813.813,0,0,0-.813.813v2.115a2.443,2.443,0,0,1-2.44,2.44H4.067a2.443,2.443,0,0,1-2.44-2.44V217.18a.813.813,0,0,0-1.627,0v19.426a4.071,4.071,0,0,0,4.067,4.067h47.39a4.071,4.071,0,0,0,4.067-4.067v-2.115A.813.813,0,0,0,54.71,233.678Z" transform="translate(0 -185.149)" fill="#fff"/>
          <path id="Path_41060" data-name="Path 41060" d="M56.885,232.5a.813.813,0,0,0-1.15,0l-4.888,4.888a.813.813,0,0,0,0,1.15l4.823,4.823a.813.813,0,0,0,1.15-1.15l-4.248-4.248,4.312-4.312A.813.813,0,0,0,56.885,232.5Z" transform="translate(-45.121 -205.4)" fill="#fff"/>
          <path id="Path_41061" data-name="Path 41061" d="M206.854,243.359a.814.814,0,0,0,1.15,0l4.823-4.823a.814.814,0,0,0,0-1.15L207.94,232.5a.813.813,0,0,0-1.15,1.15l4.313,4.313-4.248,4.248A.814.814,0,0,0,206.854,243.359Z" transform="translate(-184.152 -205.399)" fill="#fff"/>
          <path id="Path_41062" data-name="Path 41062" d="M125.3,223.683a.814.814,0,0,0,.761-.525l5.779-15.225a.813.813,0,1,0-1.521-.577l-5.779,15.226a.814.814,0,0,0,.76,1.1Z" transform="translate(-110.99 -182.329)" fill="#fff"/>
          <path id="Path_41063" data-name="Path 41063" d="M33.006,95.311a2.44,2.44,0,1,0,2.44-2.44A2.443,2.443,0,0,0,33.006,95.311Zm3.253,0a.813.813,0,1,1-.813-.813A.814.814,0,0,1,36.259,95.311Z" transform="translate(-29.427 -87.287)" fill="#fff"/>
          <path id="Path_41064" data-name="Path 41064" d="M91.166,95.311a2.44,2.44,0,1,0,2.44-2.44A2.443,2.443,0,0,0,91.166,95.311Zm3.253,0a.813.813,0,1,1-.813-.813A.814.814,0,0,1,94.419,95.311Z" transform="translate(-81.28 -87.287)" fill="#fff"/>
          <path id="Path_41065" data-name="Path 41065" d="M149.325,95.311a2.44,2.44,0,1,0,2.44-2.44A2.443,2.443,0,0,0,149.325,95.311Zm3.253,0a.813.813,0,1,1-.813-.813A.814.814,0,0,1,152.578,95.311Z" transform="translate(-133.132 -87.287)" fill="#fff"/>
          <path id="Path_41066" data-name="Path 41066" d="M315.44,202.248h5.1a2.44,2.44,0,1,0,0-4.88h-5.1a2.44,2.44,0,0,0,0,4.88Zm0-3.253h5.1a.813.813,0,1,1,0,1.627h-5.1a.813.813,0,1,1,0-1.627Z" transform="translate(-279.057 -177.694)" fill="#fff"/>
          <path id="Path_41067" data-name="Path 41067" d="M315.44,262.248h13.447a2.44,2.44,0,1,0,0-4.88H315.44a2.44,2.44,0,0,0,0,4.88Zm0-3.253h13.447a.813.813,0,0,1,0,1.627H315.44a.813.813,0,1,1,0-1.627Z" transform="translate(-279.057 -228.315)" fill="#fff"/>
          <path id="Path_41068" data-name="Path 41068" d="M315.44,322.248h9.453a2.44,2.44,0,0,0,0-4.88H315.44a2.44,2.44,0,0,0,0,4.88Zm0-3.253h9.453a.813.813,0,0,1,0,1.627H315.44a.813.813,0,1,1,0-1.627Z" transform="translate(-279.057 -278.937)" fill="#fff"/>
        </g>
      </g>
    </g>
  </g>
</svg>
