<svg xmlns="http://www.w3.org/2000/svg" width="100" height="100" viewBox="0 0 100 100">
  <g id="Group_49830" data-name="Group 49830" transform="translate(-9118 -16007)">
    <path id="Path_41200" data-name="Path 41200" d="M50,0A50,50,0,1,1,0,50,50,50,0,0,1,50,0Z" transform="translate(9118 16007)" fill="#904ce2"/>
    <g id="softskill" transform="translate(9139 16028)">
      <g id="Group_49326" data-name="Group 49326" transform="translate(12.538 21.867)">
        <g id="Group_49325" data-name="Group 49325" transform="translate(0 0)">
          <path id="Path_41084" data-name="Path 41084" d="M132.808,183.2a1.143,1.143,0,0,0-.491-.034l-.058,0a7.925,7.925,0,0,0,2.4-5.683V166.139A1.139,1.139,0,0,0,133.519,165h-8.436a6.331,6.331,0,0,0-6.324,6.324v6.158a7.925,7.925,0,0,0,2.4,5.683l-.058,0a1.145,1.145,0,0,0-.491.034,11.575,11.575,0,0,0-10.518,11.513v5.592a1.139,1.139,0,0,0,1.139,1.139h30.958a1.139,1.139,0,0,0,1.139-1.139v-5.592A11.576,11.576,0,0,0,132.808,183.2Zm-11.772-10.282v-1.6h0a4.051,4.051,0,0,1,4.046-4.046h7.3v3.048a2.8,2.8,0,0,1-2.793,2.793h-8.551Zm0,4.563V175.4h8.551a5.04,5.04,0,0,0,2.793-.841v2.927a5.672,5.672,0,0,1-11.344,0Zm8.7,7.95-3.025,3.025-3.025-3.025Zm11.315,13.736h-28.68v-3.278h9.294a1.139,1.139,0,1,0,0-2.278h-9.226a9.3,9.3,0,0,1,8.1-8.11l5.371,5.371a1.139,1.139,0,0,0,1.611,0l5.371-5.371a9.294,9.294,0,0,1,8.164,9.212Z" transform="translate(-110.09 -165)" fill="#fff"/>
        </g>
      </g>
      <g id="Group_49328" data-name="Group 49328" transform="translate(28.017 50.478)">
        <g id="Group_49327" data-name="Group 49327">
          <path id="Path_41085" data-name="Path 41085" d="M247.944,416.554a1.138,1.138,0,1,0,.334.805A1.147,1.147,0,0,0,247.944,416.554Z" transform="translate(-246 -416.22)" fill="#fff"/>
        </g>
      </g>
      <g id="Group_49330" data-name="Group 49330" transform="translate(24.843 0)">
        <g id="Group_49329" data-name="Group 49329">
          <path id="Path_41086" data-name="Path 41086" d="M222.455,27a4.327,4.327,0,0,0-1.139,8.5v2.782a1.139,1.139,0,0,0,2.278,0V35.5a4.327,4.327,0,0,0-1.139-8.5Zm0,6.378a2.05,2.05,0,1,1,2.05-2.05A2.052,2.052,0,0,1,222.455,33.378Z" transform="translate(-218.127 -27)" fill="#fff"/>
        </g>
      </g>
      <g id="Group_49332" data-name="Group 49332" transform="translate(42.917 7.616)">
        <g id="Group_49331" data-name="Group 49331" transform="translate(0 0)">
          <path id="Path_41087" data-name="Path 41087" d="M385.942,95.139a4.328,4.328,0,0,0-6.817,5.207l-1.967,1.967a1.139,1.139,0,0,0,1.611,1.611l1.966-1.966a4.328,4.328,0,0,0,5.208-6.819Zm-1.611,4.51a2.05,2.05,0,1,1,.6-1.45A2.052,2.052,0,0,1,384.332,99.649Z" transform="translate(-376.824 -93.871)" fill="#fff"/>
        </g>
      </g>
      <g id="Group_49334" data-name="Group 49334" transform="translate(45.889 31.306)">
        <g id="Group_49333" data-name="Group 49333">
          <path id="Path_41088" data-name="Path 41088" d="M411.017,267.833a4.335,4.335,0,0,0-4.175,3.189h-2.782a1.139,1.139,0,0,0,0,2.278h2.782a4.328,4.328,0,1,0,4.175-5.467Zm0,6.378a2.05,2.05,0,1,1,2.05-2.05A2.052,2.052,0,0,1,411.017,274.211Z" transform="translate(-402.922 -267.833)" fill="#fff"/>
        </g>
      </g>
      <g id="Group_49336" data-name="Group 49336" transform="translate(41.57 34.392)">
        <g id="Group_49335" data-name="Group 49335">
          <path id="Path_41089" data-name="Path 41089" d="M366.944,296.164a1.138,1.138,0,1,0,.334.805A1.147,1.147,0,0,0,366.944,296.164Z" transform="translate(-365 -295.83)" fill="#fff"/>
        </g>
      </g>
      <g id="Group_49338" data-name="Group 49338" transform="translate(0 31.273)">
        <g id="Group_49337" data-name="Group 49337" transform="translate(0 0)">
          <path id="Path_41090" data-name="Path 41090" d="M11.284,270.768H8.5a4.328,4.328,0,1,0,0,2.278h2.782a1.139,1.139,0,0,0,0-2.278Zm-6.956,3.189a2.05,2.05,0,1,1,2.05-2.05A2.052,2.052,0,0,1,4.328,273.957Z" transform="translate(0 -267.579)" fill="#fff"/>
        </g>
      </g>
      <g id="Group_49340" data-name="Group 49340" transform="translate(4.943 7.506)">
        <g id="Group_49339" data-name="Group 49339" transform="translate(0 0)">
          <path id="Path_41091" data-name="Path 41091" d="M53.449,101.348l-1.966-1.966a4.326,4.326,0,1,0-1.611,1.611l1.966,1.966a1.139,1.139,0,0,0,1.611-1.611Zm-4.274-2.664h0a2.05,2.05,0,1,1,.6-1.45A2.052,2.052,0,0,1,49.174,98.685Z" transform="translate(-43.399 -92.907)" fill="#fff"/>
        </g>
      </g>
    </g>
  </g>
</svg>
