<svg xmlns="http://www.w3.org/2000/svg" width="100" height="100" viewBox="0 0 100 100">
  <g id="Group_49829" data-name="Group 49829" transform="translate(-8529 -16007)">
    <path id="Path_41200" data-name="Path 41200" d="M50,0A50,50,0,1,1,0,50,50,50,0,0,1,50,0Z" transform="translate(8529 16007)" fill="#f29941"/>
    <g id="Group_49828" data-name="Group 49828" transform="translate(553.999 488.638)">
      <g id="project_assistance" data-name="project assistance" transform="translate(8022.706 15538.362)">
        <g id="Group_49321" data-name="Group 49321" transform="translate(0 0)">
          <path id="Path_41069" data-name="Path 41069" d="M128.107,27.5a.9.9,0,0,0-.9-.832H116.788l1.69-3.729a.861.861,0,0,0,.014-.67l-.865-2.149a9.457,9.457,0,0,0,1.4-.626l2.17,1.3a.931.931,0,0,0,1.146-.155l2.1-2.229a.854.854,0,0,0,.045-1.128l-1.558-1.935a8.694,8.694,0,0,0,.473-1.272l2.488-.556a.881.881,0,0,0,.7-.9l-.157-3a.888.888,0,0,0-.79-.825l-2.533-.31a8.757,8.757,0,0,0-.6-1.219l1.348-2.077a.855.855,0,0,0-.162-1.117l-2.32-2.013a.929.929,0,0,0-1.156-.043l-2.023,1.5a9.517,9.517,0,0,0-1.333-.457L116.28.677A.9.9,0,0,0,115.352,0l-3.124.153a.894.894,0,0,0-.852.762l-.324,2.428a9.443,9.443,0,0,0-1.278.584l-2.17-1.3a.928.928,0,0,0-1.146.155l-2.1,2.229a.854.854,0,0,0-.045,1.128l1.558,1.935a8.722,8.722,0,0,0-.383.984l-4.241-1.8a.918.918,0,0,0-1.193.45l-3.6,7.941c-.181,10.308-.054,18.28,0,21.831l9.225,3.912-.208,1.144a7.8,7.8,0,0,0-.89.354l-1.626-1.1a.928.928,0,0,0-1.158.1l-1.788,1.731a.855.855,0,0,0-.1,1.12l1.134,1.571a7.266,7.266,0,0,0-.366.862l-1.936.33a.884.884,0,0,0-.748.866l.01,2.456a.885.885,0,0,0,.743.858l1.948.344a7.36,7.36,0,0,0,.376.873l-1.118,1.561a.854.854,0,0,0,.1,1.118l1.8,1.742a.928.928,0,0,0,1.156.1l1.613-1.083a7.9,7.9,0,0,0,.9.363l.357,1.884a.9.9,0,0,0,.888.718l2.539.008h0a.9.9,0,0,0,.892-.724l.34-1.873a7.787,7.787,0,0,0,.89-.354l1.626,1.1a.928.928,0,0,0,1.158-.1l1.788-1.731a.854.854,0,0,0,.1-1.12l-1.134-1.571a7.266,7.266,0,0,0,.366-.862l1.936-.33a.885.885,0,0,0,.748-.866l-.01-2.456a.885.885,0,0,0-.743-.858l-1.831-.323c2.591-.011,5.223-.012,7.781-.012a.943.943,0,0,0,.83-.26l3.805-3.914a.861.861,0,0,0,.246-.6V27.542C128.11,27.528,128.107,27.513,128.107,27.5Zm-3,.919-2.063,2.122H110.058l2.063-2.122ZM114.893,13.331a.906.906,0,0,0-.48-.484l-3.436-1.457a3.452,3.452,0,0,1,6.855.154,3.313,3.313,0,0,1-2.334,3.29Zm-.9,2.6.978,2.428,1.034,2.569-3.593-1.535Zm-6.348-8.5L106.213,5.65,107.291,4.5l2,1.2a.932.932,0,0,0,.972-.012,7.609,7.609,0,0,1,1.881-.859.884.884,0,0,0,.629-.724l.3-2.24,1.613-.079.531,2.2a.892.892,0,0,0,.7.659,7.66,7.66,0,0,1,1.961.671.931.931,0,0,0,.969-.083l1.868-1.388,1.192,1.035L120.668,6.8a.852.852,0,0,0,.013.95,7.036,7.036,0,0,1,.892,1.8.9.9,0,0,0,.75.606l2.336.286.08,1.535-2.294.512a.89.89,0,0,0-.683.676,6.975,6.975,0,0,1-.7,1.88.853.853,0,0,0,.086.947l1.436,1.783-1.078,1.146-2-1.2a.932.932,0,0,0-.972.012,7.6,7.6,0,0,1-1.56.754l-.814-2.021a5.067,5.067,0,0,0,3.485-5.011,5.278,5.278,0,0,0-10.376-.792L107.16,9.77a7.019,7.019,0,0,1,.575-1.391.852.852,0,0,0-.086-.947ZM96.458,20.018l4.894-10.8,11.5,4.878-2.46,5.388a.865.865,0,0,0,.462,1.155l5.6,2.393-1.646,3.632h-3.081a.92.92,0,0,0-.659.276l-3.805,3.914a1.568,1.568,0,0,0-.261.98v8.11h-.238L96.458,35.574Zm19.76,30.138-1.736.3a.894.894,0,0,0-.72.646,5.541,5.541,0,0,1-.621,1.464.852.852,0,0,0,.039.944l1.018,1.41-.716.693-1.459-.983a.931.931,0,0,0-.976-.037,5.948,5.948,0,0,1-1.513.6.888.888,0,0,0-.668.7l-.3,1.679-1.025,0-.321-1.693a.888.888,0,0,0-.662-.689,6.057,6.057,0,0,1-1.522-.612.931.931,0,0,0-.977.035l-1.448.972-.733-.708,1-1.4a.852.852,0,0,0,.035-.945,5.655,5.655,0,0,1-.635-1.472.894.894,0,0,0-.713-.639L99.814,50.1l0-.991,1.736-.3a.894.894,0,0,0,.72-.646,5.542,5.542,0,0,1,.621-1.464.852.852,0,0,0-.039-.944l-1.018-1.41.716-.693,1.459.983a.93.93,0,0,0,.976.037,5.955,5.955,0,0,1,1.513-.6.888.888,0,0,0,.668-.7l.3-1.679,1.025,0,.321,1.693a.888.888,0,0,0,.662.689A6.054,6.054,0,0,1,111,44.7a.931.931,0,0,0,.977-.035l1.448-.972.733.708-1,1.4a.852.852,0,0,0-.035.945,5.654,5.654,0,0,1,.635,1.472.894.894,0,0,0,.713.639l1.751.309Zm8.09-5.99c0-.862,0-2.993,0-2.993a.907.907,0,0,0-1.811,0v4.313c-2.286,0-4.619,0-6.925.011l.5-.7a.855.855,0,0,0-.1-1.118l-1.8-1.742a.928.928,0,0,0-1.156-.1L111.4,42.917a7.9,7.9,0,0,0-.9-.363l-.357-1.884a1.081,1.081,0,0,0-1.31-.719c-.015-.973.094-6.059,0-7.62h13.668V36.6a.907.907,0,0,0,1.811,0s0-3.293,0-4.8l1.992-2.049V42.117Z" transform="translate(-96.364 0)" fill="#fff"/>
          <path id="Path_41070" data-name="Path 41070" d="M306.794,390.994h-.012a3.621,3.621,0,0,0-3.624,3.64,3.67,3.67,0,0,0,3.654,3.651h.012a3.621,3.621,0,0,0,3.624-3.64,3.67,3.67,0,0,0-3.654-3.651Zm1.458,5.093a1.988,1.988,0,0,1-1.435.59,2.063,2.063,0,0,1-2.052-2.05,2.013,2.013,0,0,1,2.023-2.025,2.063,2.063,0,0,1,2.052,2.05A2,2,0,0,1,308.252,396.087Z" transform="translate(-294.683 -344.216)" fill="#fff"/>
        </g>
      </g>
      <g id="project_assistance-2" data-name="project assistance" transform="translate(7996.001 15538.362)">
        <g id="Group_49321-2" data-name="Group 49321" transform="translate(0)">
          <path id="Path_41069-2" data-name="Path 41069" d="M93.1,2.227a.888.888,0,0,0-1.775,0V6.063A18.989,18.989,0,0,0,76.265,14.6a.884.884,0,0,0,1.488.955A17.211,17.211,0,0,1,91.322,7.816V44.894H85.851A1.35,1.35,0,0,1,84.5,43.55v-3a.874.874,0,0,0-.467-.771,16.942,16.942,0,0,1-9.056-15.15,16.67,16.67,0,0,1,.775-4.873.887.887,0,0,0-1.694-.522A18.4,18.4,0,0,0,73.2,24.61a18.676,18.676,0,0,0,9.522,16.452V43.55a3.105,3.105,0,0,0,2.241,2.968v4.149a4.9,4.9,0,0,0,4.922,4.859h1.436v3.1a.888.888,0,0,0,1.775,0V2.227Zm-3.21,51.547a3.131,3.131,0,0,1-3.148-3.107V46.645h4.584v7.128ZM93.1,35.75Z" transform="translate(-65.831 -1.378)" fill="#fff"/>
          <path id="Path_41071" data-name="Path 41071" d="M72.147,50.079a.824.824,0,0,0,.568-1.372l-2.741-2.741A.8.8,0,0,0,68.838,47.1l2.741,2.742A.8.8,0,0,0,72.147,50.079Z" transform="translate(-61.724 -42.028)" fill="#fff"/>
          <path id="Path_41072" data-name="Path 41072" d="M9.1,204.487H5.229a.8.8,0,0,0,0,1.608H9.105A.8.8,0,0,0,9.1,204.487Z" transform="translate(-4.449 -181.751)" fill="#fff"/>
          <path id="Path_41073" data-name="Path 41073" d="M73.867,336.916l-2.741,2.741a.8.8,0,0,0,1.137,1.137L75,338.053A.8.8,0,0,0,73.867,336.916Z" transform="translate(-63.767 -298.286)" fill="#fff"/>
        </g>
      </g>
    </g>
  </g>
</svg>
